<svg xmlns="http://www.w3.org/2000/svg" viewBox="0 0 64 64" role="img" aria-label="Elvion Bath favicon">
  <defs>
    <linearGradient id="bg" x1="0" y1="0" x2="1" y2="1">
      <stop offset="0%" stop-color="#12161d"/>
      <stop offset="100%" stop-color="#242b35"/>
    </linearGradient>
    <linearGradient id="metal" x1="0" y1="0" x2="1" y2="1">
      <stop offset="0%" stop-color="#f4e2bf"/>
      <stop offset="100%" stop-color="#c8a670"/>
    </linearGradient>
  </defs>
  <rect x="2" y="2" width="60" height="60" rx="14" fill="url(#bg)"/>
  <circle cx="44" cy="16" r="3" fill="#f7ead0"/>
  <circle cx="50" cy="21" r="2" fill="#f7ead0"/>
  <circle cx="38" cy="22" r="1.6" fill="#f7ead0"/>
  <path d="M14 36h36a8 8 0 0 1-8 8H22a8 8 0 0 1-8-8Z" fill="url(#metal)"/>
  <rect x="20" y="29" width="4" height="7" rx="2" fill="#ead2a8"/>
  <rect x="42" y="29" width="4" height="7" rx="2" fill="#ead2a8"/>
  <path d="M20 45h24v4a2 2 0 0 1-2 2H22a2 2 0 0 1-2-2v-4Z" fill="#b9905b"/>
</svg>
