<svg width="64" height="64" viewBox="0 0 64 64" fill="none" xmlns="http://www.w3.org/2000/svg">
  <defs>
    <linearGradient id="fbg" x1="7" y1="6" x2="57" y2="58" gradientUnits="userSpaceOnUse">
      <stop offset="0" stop-color="#E9F7FF"/>
      <stop offset="0.52" stop-color="#9ED8FF"/>
      <stop offset="1" stop-color="#4E88AE"/>
    </linearGradient>
  </defs>

  <rect x="2" y="2" width="60" height="60" rx="16" fill="#0F1721"/>
  <rect x="5" y="5" width="54" height="54" rx="14" fill="url(#fbg)" fill-opacity="0.18"/>
  <rect x="12" y="28" width="40" height="20" rx="9" fill="#F3FCFF"/>
  <path d="M19 27V22C19 14.82 24.82 9 32 9C39.18 9 45 14.82 45 22V27" stroke="#EAF8FF" stroke-width="3.6" stroke-linecap="round"/>
  <path d="M15 37C17.5 34.6 20 40 22.5 37C25 34.6 27.5 40 30 37C32.5 34.6 35 40 37.5 37C40 34.6 42.5 40 45 37" stroke="#2A6D95" stroke-width="2.7" stroke-linecap="round"/>
</svg>
