<svg width="1200" height="800" viewBox="0 0 1200 800" fill="none" xmlns="http://www.w3.org/2000/svg">
  <defs>
    <linearGradient id="bg" x1="0" y1="0" x2="1" y2="1">
      <stop offset="0%" stop-color="#0f1b1a" />
      <stop offset="55%" stop-color="#134e4a" />
      <stop offset="100%" stop-color="#2dd4bf" stop-opacity="0.35" />
    </linearGradient>
    <linearGradient id="glass" x1="0" y1="0" x2="1" y2="1">
      <stop offset="0%" stop-color="#ffffff" stop-opacity="0.18" />
      <stop offset="100%" stop-color="#ffffff" stop-opacity="0" />
    </linearGradient>
  </defs>
  <rect width="1200" height="800" rx="48" fill="url(#bg)" />
  <g opacity="0.2">
    <circle cx="160" cy="150" r="110" fill="#ffffff" />
    <circle cx="1020" cy="130" r="160" fill="#ffffff" />
    <circle cx="1040" cy="670" r="210" fill="#ffffff" />
  </g>
  <rect x="90" y="110" width="1020" height="580" rx="36" fill="url(#glass)" stroke="#ffffff" stroke-opacity="0.18" />
  <g fill="#ffffff" opacity="0.8">
    <rect x="140" y="180" width="220" height="16" rx="8" />
    <rect x="140" y="210" width="320" height="12" rx="6" opacity="0.65" />
  </g>
  <g fill="#ffffff" opacity="0.75">
    <rect x="140" y="520" width="420" height="18" rx="9" />
    <rect x="140" y="552" width="360" height="14" rx="7" opacity="0.6" />
  </g>
  <g opacity="0.9">
    <rect x="690" y="260" width="360" height="240" rx="28" fill="#ffffff" fill-opacity="0.1" stroke="#ffffff" stroke-opacity="0.3" />
    <path d="M760 370c0-44.2 35.8-80 80-80h60c44.2 0 80 35.8 80 80v20c0 44.2-35.8 80-80 80h-60c-44.2 0-80-35.8-80-80v-20z" fill="#ffffff" fill-opacity="0.2" />
    <path d="M800 330v-20c0-29.8 24.2-54 54-54s54 24.2 54 54v20" stroke="#ffffff" stroke-opacity="0.6" stroke-width="10" stroke-linecap="round" />
  </g>
  <text x="140" y="430" fill="#ffffff" font-family="'Segoe UI', Arial, sans-serif" font-size="46" font-weight="700">About Gallery 2</text>
  <text x="140" y="470" fill="#ffffff" opacity="0.7" font-family="'Segoe UI', Arial, sans-serif" font-size="22" font-weight="500">Replace this placeholder with your photo</text>
</svg>
